<?xml version="1.0" encoding="utf-8"?>
<?xml-stylesheet type="text/xsl" href="rss1.xsl"?>
<rss version="2.0" xmlns:atom="http://www.w3.org/2005/Atom" xmlns:content="http://purl.org/rss/1.0/modules/content/" xmlns:dc="http://purl.org/dc/elements/1.1/" xmlns:media="http://search.yahoo.com/mrss/">
<channel>
 <title>Getty</title>
 <link>http://www.gettyimg.com/</link>
 <atom:link href="http://www.gettyimg.com/" rel="self" type="application/rss+xml" />

 
                <item>
                <title><![CDATA[【HD Live Performances】WEB-RiP - Queen.Rock.Montreal.1981.1080p.AMZN.WEB-DL.DDP2.0.H.264-mariellisaa]]></title>
                <link><![CDATA[https://sharemania.us/threads/queen-rock-montreal-1981-1080p-amzn-web-dl-ddp2-0-h-264-mariellisaa.231157/]]></link>
                <description><![CDATA[<article>
<blockquote class="messageText SelectQuoteContainer ugc baseHtml">
<div style="text-align: center"><span style="font-size: 15px"><img src="https://m.media-amazon.com/images/S/pv-target-images/91841bb97e04bc7efafaea4492db021536edb2e97cedd44c4de3ac95c81afc46.jpg" class="bbCodeImage LbImage" alt="[​IMG]" data-url="https://m.media-amazon.com/images/S/pv-target-images/91841bb97e04bc7efafaea4492db021536edb2e97cedd44c4de3ac95c81afc46.jpg" style=""> </span><br>
<span style="font-family: 'Times New Roman'"><span style="font-size: 15px"><img src="https://i.imgur.com/bjNJV1j.jpg" class="bbCodeImage LbImage" alt="[​IMG]" data-url="https://i.imgur.com/bjNJV1j.jpg" style=""> <br>
</span></span>​</div>
<div class="ToggleTriggerAnchor bbCodeSpoilerContainer">
<button type="button" class="button bbCodeSpoilerButton ToggleTrigger Tooltip JsOnly" data-target="> .SpoilerTarget"><span>Spoiler: <span class="SpoilerTitle">MediaInfo</span></span></button>
<div class="SpoilerTarget bbCodeSpoilerText"><span style="font-family: 'Times New Roman'"><span style="font-size: 15px">General<br>
Complete name : D:\Queen.Rock.Montreal.1981.1080p.AMZN.WEB-DL.DDP2.0.H.264-mariellisaa.mp4<br>
Format : MPEG-4<br>
Format profile : Base Media<br>
Codec ID : isom (isom/dby1/iso2/avc1/mp41)<br>
File size : 5.91 GiB<br>
Duration : 1 h 35 min<br>
Overall bit rate : 8 877 kb/s<br>
Collection : Queen - Rock Montreal<br>
Track name : Queen - Rock Montreal<br>
Genre : International;Music Videos and Concerts<br>
Description : In November 1981, with 'Under Pressure' topping the charts in the UK, Queen arrived in Montreal following dates in Japan and their record-breaking tour of Latin America. It was to be the only concert by Queen that was ever shot on 35mm film. Always a great live band, with arguably the greatest frontman of all time in Freddie Mercury, they excelled themselves with the cameras rolling. The pictur...<br>
Recorded date : 2009<br>
Writing application : Lavf60.3.100<br>
Cover : Yes<br>
<br>
Video<br>
ID : 1<br>
Format : AVC<br>
Format/Info : Advanced Video Codec<br>
Format profile : High@L4<br>
Format settings : CABAC / 4 Ref Frames<br>
Format settings, CABAC : Yes<br>
Format settings, Reference frames : 4 frames<br>
Codec ID : avc1<br>
Codec ID/Info : Advanced Video Coding<br>
Duration : 1 h 35 min<br>
Duration_LastFrame : -30 ms<br>
Bit rate : 8 646 kb/s<br>
Width : 1 920 pixels<br>
Height : 1 080 pixels<br>
Display aspect ratio : 16:9<br>
Frame rate mode : Constant<br>
Frame rate : 25.000 FPS<br>
Color space : YUV<br>
Chroma subsampling : 4:2:0<br>
Bit depth : 8 bits<br>
Scan type : Progressive<br>
Bits/(Pixel*Frame) : 0.167<br>
Stream size : 5.76 GiB (97%)<br>
Color range : Limited<br>
Color primaries : BT.709<br>
Transfer characteristics : BT.709<br>
Matrix coefficients : BT.709<br>
Codec configuration box : avcC<br>
<br>
Audio<br>
ID : 3<br>
Format : E-AC-3<br>
Format/Info : Enhanced AC-3<br>
Commercial name : Dolby Digital Plus<br>
Codec ID : ec-3<br>
Duration : 1 h 35 min<br>
Bit rate mode : Constant<br>
Bit rate : 224 kb/s<br>
Channel(s) : 2 channels<br>
Channel layout : L R<br>
Sampling rate : 48.0 kHz<br>
Frame rate : 31.250 FPS (1536 SPF)<br>
Compression mode : Lossy<br>
Stream size : 153 MiB (3%)<br>
Language : English<br>
Service kind : Complete Main<br>
Default : Yes<br>
Alternate group : 1<br>
<br>
<br>
</span></span></div>
</div><br>
<div style="text-align: center"><span style="font-family: 'Times New Roman'"><span style="font-size: 15px"><br>
<div class="bbCodeBlock bbCodeVfcHH HiddenContent">
<div class="attribution type">Hidden Content:</div>
<blockquote>You must either reply or click 'Like' to see the hidden information contained here.</blockquote>
</div></span></span><span style="font-size: 15px"><br>
<br>
<span style="font-family: 'Times New Roman'">Ripped: by me</span></span>​</div>
<div class="messageTextEndMarker">&nbsp;</div>
</blockquote>
</article>]]></description>
                <author><![CDATA[mariellisaa]]></author>
                </item>

                </channel></rss>